<svg width="170" height="320" viewBox="0 0 170 320" fill="none" xmlns="http://www.w3.org/2000/svg">
<g id="Group 38">
<g id="Group 2 Copy 3">
<g id="iPhone-X-Mockup">
<g id="phone">
<path id="body" fill-rule="evenodd" clip-rule="evenodd" d="M23.8167 0.364258H146.206C157.944 0.364258 167.459 9.47488 167.459 20.7134V299.286C167.459 310.525 157.944 319.635 146.206 319.635H23.8167C12.0789 319.635 2.56348 310.525 2.56348 299.286V20.7134C2.56348 9.47488 12.0789 0.364258 23.8167 0.364258Z" fill="#213648"/>
<g id="frame">
<path id="reflect-frame-top" opacity="0.595562" fill-rule="evenodd" clip-rule="evenodd" d="M146.679 0H23.2705C17.5089 0.351332 12.1952 2.98044 7.32947 7.88732C10.4587 5.15577 16.04 1.50052 23.4191 1.50052C23.4191 1.50052 141.611 1.50052 146.531 1.50052C153.91 1.50052 159.491 5.15577 162.62 7.88732C157.755 2.98044 152.441 0.351332 146.679 0Z" fill="url(#paint0_linear_0_3003)" fill-opacity="0.65"/>
<path id="reflect-frame-right" opacity="0.75" fill-rule="evenodd" clip-rule="evenodd" d="M164.12 296.109V22.3885C164.12 15.0443 161.42 12.3294 159.81 10.5861C158.2 8.84276 158.132 7.95359 160.445 9.26983C162.759 10.5861 167.386 14.4197 167.386 22.3885V296.109C167.386 304.078 162.759 307.912 160.445 309.228C158.132 310.544 158.2 309.655 159.81 307.912C161.42 306.169 164.12 303.454 164.12 296.109Z" fill="url(#paint1_linear_0_3003)"/>
<path id="reflect-frame-left" opacity="0.75" fill-rule="evenodd" clip-rule="evenodd" d="M5.82999 296.109V22.3885C5.82999 15.0443 8.52915 12.3294 10.1393 10.5861C11.7495 8.84276 11.8181 7.95359 9.50449 9.26983C7.19093 10.5861 2.56344 14.4197 2.56344 22.3885V296.109C2.56344 304.078 7.19093 307.912 9.50449 309.228C11.8181 310.544 11.7495 309.655 10.1393 307.912C8.52915 306.169 5.82999 303.454 5.82999 296.109Z" fill="url(#paint2_linear_0_3003)"/>
</g>
<g id="controls">
<path id="vol+" fill-rule="evenodd" clip-rule="evenodd" d="M0.920044 66.5847C0.920044 65.7074 1.63131 64.9961 2.5087 64.9961C3.38609 64.9961 4.09735 65.7074 4.09735 66.5847V104.592C4.09735 105.469 3.38609 106.181 2.5087 106.181C1.63131 106.181 0.920044 105.469 0.920044 104.592V66.5847Z" fill="#2E423C"/>
<path id="power" fill-rule="evenodd" clip-rule="evenodd" d="M165.743 100.176C165.743 99.2987 166.454 98.5874 167.331 98.5874C168.209 98.5874 168.92 99.2987 168.92 100.176V127.047C168.92 127.924 168.209 128.635 167.331 128.635C166.454 128.635 165.743 127.924 165.743 127.047V100.176Z" fill="#2E423C"/>
</g>
</g>
<g id="Screen">
<path id="Screen Mask" fill-rule="evenodd" clip-rule="evenodd" d="M70.4728 7.96436L22.8528 7.96436C15.7459 7.96436 10.5676 12.8049 10.5676 19.1269V289.456C10.5676 297.699 18.5691 305.003 27.6167 305.003H142.39C151.105 305.003 159.439 297.643 159.439 289.456V19.8576C159.439 12.2802 153.814 8.00942 147.154 7.96436L98.7788 7.96436C98.5955 7.9944 95.2724 9.36068 93.8679 12.8049C92.4635 16.2491 89.6375 18.9947 86.5435 18.9947H82.9499C81.4792 18.9947 77.6073 17.5677 75.6467 12.8049C73.6861 8.04207 70.6561 7.9944 70.4728 7.96436Z" fill="#36536B"/>
<mask id="mask0_0_3003" style="mask-type:alpha" maskUnits="userSpaceOnUse" x="10" y="7" width="150" height="299">
<path id="Screen Mask_2" fill-rule="evenodd" clip-rule="evenodd" d="M70.4728 7.96436L22.8528 7.96436C15.7459 7.96436 10.5676 12.8049 10.5676 19.1269V289.456C10.5676 297.699 18.5691 305.003 27.6167 305.003H142.39C151.105 305.003 159.439 297.643 159.439 289.456V19.8576C159.439 12.2802 153.814 8.00942 147.154 7.96436L98.7788 7.96436C98.5955 7.9944 95.2724 9.36068 93.8679 12.8049C92.4635 16.2491 89.6375 18.9947 86.5435 18.9947H82.9499C81.4792 18.9947 77.6073 17.5677 75.6467 12.8049C73.6861 8.04207 70.6561 7.9944 70.4728 7.96436Z" fill="white"/>
</mask>
<g mask="url(#mask0_0_3003)">
</g>
</g>
</g>
</g>
<g id="Group 39">
<g id="Group 33">
<g id="Group 34">
<g id="Rectangle" filter="url(#filter0_d_0_3003)">
<rect x="28.4401" y="90.8799" width="112.64" height="122.24" rx="5" fill="#FBFCFE"/>
</g>
<g id="Group 32">
<path id="Paymentof$9204iscompletedandprocessedsuccessfully" fill-rule="evenodd" clip-rule="evenodd" d="M97.6477 166.452L97.6477 167.194H96.5994L96.5993 166.453L96.5806 166.451C96.1101 166.393 95.7114 166.259 95.3847 166.048C94.9354 165.759 94.6775 165.311 94.6109 164.707L95.8756 164.682C95.9421 164.956 96.0857 165.165 96.3061 165.308C96.5266 165.451 96.8033 165.522 97.1361 165.522C97.3357 165.522 97.5125 165.49 97.6665 165.424C97.8204 165.359 97.9417 165.27 98.0305 165.158C98.1192 165.046 98.1636 164.918 98.1636 164.773C98.1636 164.551 98.0929 164.386 97.9514 164.276C97.81 164.167 97.5923 164.079 97.2983 164.012L96.3124 163.8C95.8548 163.708 95.488 163.526 95.2121 163.253C94.9361 162.98 94.7954 162.613 94.7898 162.153C94.787 161.775 94.889 161.449 95.0956 161.173C95.3022 160.897 95.5837 160.684 95.9401 160.534L96.0955 160.475C96.2535 160.42 96.4196 160.378 96.5938 160.351L96.6198 160.348L96.6202 159.523H97.6727L97.6726 160.353L97.7762 160.371C97.9727 160.411 98.1539 160.472 98.3196 160.553C98.651 160.715 98.9061 160.933 99.085 161.206C99.2639 161.479 99.3506 161.781 99.345 162.111L98.1178 162.132C98.079 161.866 97.9902 161.656 97.8516 161.504C97.7129 161.351 97.4827 161.275 97.161 161.275C96.9946 161.275 96.8462 161.293 96.7159 161.329C96.5856 161.365 96.4732 161.416 96.3789 161.481C96.2846 161.546 96.2132 161.623 96.1647 161.712C96.1162 161.8 96.0919 161.9 96.0919 162.011C96.0919 162.186 96.1508 162.324 96.2687 162.425C96.3866 162.526 96.6091 162.62 96.9364 162.706L97.9057 162.943C98.452 163.073 98.8465 163.297 99.0892 163.613C99.3318 163.929 99.4532 164.313 99.4532 164.765C99.4532 165.112 99.3582 165.414 99.1682 165.672C98.9782 165.93 98.7099 166.13 98.3633 166.271L98.211 166.327C98.0549 166.379 97.8877 166.418 97.7092 166.444L97.6477 166.452ZM50.7301 164.195V166.4H49.8233V160.385H51.9074C52.3373 160.385 52.7221 160.458 53.0618 160.605C53.4016 160.752 53.6692 160.968 53.8647 161.254C54.0602 161.54 54.158 161.89 54.158 162.306C54.158 162.706 54.0685 163.046 53.8897 163.328C53.7108 163.609 53.4612 163.824 53.1409 163.973C52.8205 164.121 52.4496 164.195 52.0281 164.195H50.7301ZM50.726 163.467H52.0031C52.3858 163.467 52.6978 163.357 52.9391 163.136C53.1804 162.916 53.301 162.623 53.301 162.257C53.301 161.885 53.1762 161.6 52.9266 161.402C52.677 161.203 52.3581 161.104 51.9698 161.104H50.726V163.467ZM56.052 166.483C56.3599 166.483 56.6365 166.42 56.882 166.294C57.1274 166.168 57.3305 165.94 57.4914 165.61L57.5621 166.4H58.3151V163.392C58.3151 163.098 58.2534 162.849 58.13 162.643C58.0065 162.438 57.8187 162.282 57.5663 162.175C57.3139 162.069 56.9922 162.015 56.6012 162.015C56.2489 162.015 55.9425 162.065 55.6818 162.165C55.4211 162.265 55.2166 162.413 55.0682 162.608C54.9198 162.804 54.8373 163.044 54.8207 163.33H55.5944C55.6499 163.089 55.7671 162.915 55.946 162.81C56.1248 162.704 56.3294 162.652 56.5596 162.652C56.8646 162.649 57.0907 162.718 57.2376 162.86C57.3846 163.001 57.4581 163.195 57.4581 163.442V163.754L56.7509 163.775C56.0104 163.789 55.471 163.914 55.1327 164.149C54.7943 164.385 54.6252 164.741 54.6252 165.218C54.6252 165.485 54.6862 165.712 54.8082 165.901C54.9302 166.089 55.0987 166.234 55.3136 166.333C55.5286 166.433 55.7747 166.483 56.052 166.483ZM55.7234 165.67C55.8843 165.799 56.0867 165.863 56.3308 165.863C56.4667 165.863 56.6012 165.839 56.7343 165.79C56.8674 165.742 56.988 165.675 57.0962 165.591C57.2044 165.506 57.291 165.411 57.3562 165.306C57.4214 165.2 57.4553 165.092 57.4581 164.981V164.27L56.8757 164.282C56.579 164.285 56.3273 164.316 56.1207 164.374C55.9141 164.432 55.756 164.522 55.6464 164.644C55.5369 164.766 55.4821 164.929 55.4821 165.131C55.4821 165.361 55.5625 165.541 55.7234 165.67ZM59.8493 167.773C60.0545 167.773 60.2445 167.741 60.4192 167.677C60.5939 167.613 60.7541 167.5 60.8997 167.336C61.0453 167.172 61.1791 166.941 61.3011 166.641L63.0941 162.098H62.2205L61.0224 165.277L59.816 162.098H58.9258L60.6023 166.275L60.4691 166.637C60.4525 166.684 60.4275 166.735 60.3943 166.791C60.361 166.846 60.3131 166.898 60.2507 166.947C60.1883 166.995 60.1038 167.034 59.997 167.061C59.8902 167.089 59.7536 167.099 59.5872 167.09L59.1504 167.082V167.656L59.3023 167.714C59.4035 167.753 59.5858 167.773 59.8493 167.773ZM64.6902 163.559V166.4H63.8V162.098H64.6652V162.718C64.7873 162.53 64.9537 162.365 65.1644 162.225C65.3752 162.085 65.647 162.015 65.9798 162.015C66.1351 162.015 66.2925 162.042 66.452 162.094C66.6114 162.147 66.7584 162.225 66.8929 162.329C67.0274 162.433 67.1335 162.562 67.2112 162.714C67.347 162.509 67.5287 162.341 67.7561 162.211C67.9835 162.08 68.2387 162.015 68.5216 162.015C68.6741 162.015 68.8322 162.04 68.9958 162.088C69.1594 162.137 69.3113 162.218 69.4513 162.334C69.5914 162.449 69.7051 162.607 69.7924 162.81C69.8798 163.012 69.9235 163.269 69.9235 163.579V166.4H69.0291V163.675C69.0291 163.439 68.9896 163.255 68.9105 163.122C68.8315 162.989 68.7289 162.895 68.6027 162.841C68.4765 162.787 68.3427 162.76 68.2012 162.76C68.0737 162.76 67.9405 162.785 67.8019 162.835C67.6632 162.885 67.5453 162.968 67.4483 163.084C67.3512 163.201 67.3027 163.359 67.3027 163.559V166.4H66.4124V163.484C66.4124 163.326 66.3701 163.193 66.2856 163.084C66.201 162.976 66.0956 162.895 65.9694 162.841C65.8432 162.787 65.7177 162.76 65.5929 162.76C65.4543 162.76 65.3156 162.788 65.1769 162.843C65.0382 162.899 64.9225 162.985 64.8296 163.103C64.7367 163.221 64.6902 163.373 64.6902 163.559ZM72.8435 166.483C73.1292 166.483 73.4023 166.431 73.663 166.327C73.9237 166.223 74.1463 166.069 74.3307 165.863C74.5151 165.658 74.6323 165.408 74.6822 165.114H73.8585C73.8003 165.345 73.6776 165.518 73.4904 165.634C73.3032 165.751 73.082 165.809 72.8269 165.809C72.5717 165.809 72.3582 165.75 72.1862 165.632C72.0143 165.515 71.886 165.354 71.8014 165.15C71.7168 164.946 71.6745 164.715 71.6745 164.457H74.703V164.162C74.703 163.726 74.6295 163.349 74.4825 163.028C74.3356 162.708 74.1199 162.459 73.8357 162.282C73.5514 162.104 73.2013 162.015 72.7853 162.015C72.3637 162.015 72.0032 162.112 71.7037 162.306C71.4041 162.501 71.1753 162.769 71.0173 163.111C70.8592 163.454 70.7801 163.848 70.7801 164.295C70.7801 164.747 70.8668 165.137 71.0401 165.464C71.2135 165.791 71.4554 166.043 71.7661 166.219C72.0767 166.395 72.4358 166.483 72.8435 166.483ZM71.6745 163.879H73.8544C73.8544 163.654 73.8156 163.45 73.7379 163.265C73.6602 163.081 73.5417 162.935 73.3822 162.829C73.2228 162.722 73.0224 162.668 72.7811 162.668C72.5343 162.668 72.329 162.728 72.1654 162.847C72.0018 162.967 71.8791 163.119 71.7973 163.305C71.7154 163.491 71.6745 163.682 71.6745 163.879ZM76.523 166.4V163.559C76.523 163.381 76.5715 163.233 76.6686 163.116C76.7656 162.998 76.8932 162.91 77.0513 162.851C77.2094 162.793 77.3758 162.764 77.5505 162.764C77.8112 162.764 78.024 162.839 78.1891 162.989C78.3541 163.138 78.4366 163.367 78.4366 163.675V166.4H79.3268V163.579C79.3268 163.222 79.2575 162.93 79.1188 162.704C78.9801 162.478 78.7964 162.311 78.5676 162.205C78.3388 162.098 78.0899 162.044 77.8209 162.044C77.5935 162.044 77.3931 162.076 77.2198 162.14C77.0464 162.204 76.9008 162.287 76.783 162.39C76.6651 162.492 76.5715 162.602 76.5022 162.718V162.098H75.6327V166.4H76.523ZM82.2879 166.404C82.1784 166.421 82.0376 166.429 81.8657 166.429C81.5467 166.429 81.2992 166.386 81.1231 166.3C80.947 166.214 80.825 166.09 80.757 165.928C80.6891 165.766 80.6551 165.569 80.6551 165.339V162.739H79.9562V162.098H80.6801L80.9006 160.834H81.5454V162.094H82.5105V162.739H81.5454L81.5495 165.306C81.5495 165.447 81.5641 165.551 81.5932 165.616C81.6223 165.681 81.6722 165.723 81.743 165.741C81.8137 165.759 81.91 165.768 82.0321 165.768H82.5354V166.346C82.48 166.368 82.3975 166.387 82.2879 166.404ZM86.9619 166.483C87.3917 166.483 87.7543 166.39 88.0497 166.202C88.3451 166.015 88.5697 165.755 88.7236 165.422C88.8775 165.09 88.9545 164.705 88.9545 164.27C88.9545 163.793 88.8727 163.386 88.7091 163.049C88.5454 162.712 88.3152 162.456 88.0185 162.279C87.7218 162.103 87.3709 162.015 86.966 162.015C86.5417 162.015 86.1798 162.109 85.8803 162.296C85.5807 162.483 85.3526 162.746 85.1959 163.084C85.0392 163.423 84.9609 163.818 84.9609 164.27C84.9609 164.739 85.0434 165.138 85.2084 165.468C85.3734 165.798 85.6064 166.05 85.9073 166.223C86.2082 166.396 86.5597 166.483 86.9619 166.483ZM86.3129 165.585C86.4793 165.726 86.697 165.797 86.966 165.797C87.2101 165.797 87.4146 165.732 87.5796 165.603C87.7446 165.474 87.8687 165.293 87.9519 165.058C88.0351 164.824 88.0767 164.553 88.0767 164.245C88.0767 163.959 88.04 163.699 87.9665 163.465C87.893 163.231 87.7744 163.044 87.6108 162.906C87.4472 162.767 87.2323 162.698 86.966 162.698C86.7164 162.698 86.5084 162.761 86.342 162.887C86.1756 163.013 86.0501 163.192 85.9655 163.423C85.881 163.655 85.8387 163.929 85.8387 164.245C85.8387 164.525 85.8761 164.783 85.951 165.019C86.0259 165.255 86.1465 165.443 86.3129 165.585ZM91.1639 166.4V162.739H92.1707V162.098H91.1473V161.549C91.1473 161.364 91.1785 161.226 91.2409 161.135C91.3033 161.045 91.4205 161 91.5924 161H92.2123L92.2081 160.385H91.3511C90.9962 160.385 90.7271 160.475 90.5441 160.657C90.3611 160.839 90.2695 161.101 90.2695 161.445V162.098H89.3918V162.739H90.2695V166.4H91.1639ZM102.372 166.491C102.899 166.491 103.352 166.373 103.732 166.136C104.112 165.899 104.404 165.541 104.608 165.062C104.812 164.584 104.914 163.986 104.914 163.267C104.914 162.666 104.815 162.142 104.616 161.697C104.418 161.252 104.134 160.908 103.763 160.665C103.393 160.423 102.953 160.301 102.443 160.301C101.988 160.301 101.591 160.389 101.253 160.563C100.915 160.738 100.651 160.979 100.462 161.287C100.274 161.595 100.18 161.946 100.18 162.34C100.18 162.731 100.269 163.068 100.448 163.353C100.627 163.637 100.874 163.856 101.188 164.01C101.503 164.164 101.864 164.241 102.272 164.241C102.497 164.241 102.701 164.211 102.884 164.151C103.067 164.092 103.227 164.007 103.364 163.898C103.501 163.788 103.609 163.66 103.686 163.513C103.72 163.993 103.682 164.381 103.572 164.678C103.463 164.974 103.299 165.191 103.081 165.327C102.863 165.463 102.61 165.53 102.322 165.53C102.061 165.53 101.845 165.458 101.673 165.312C101.501 165.166 101.39 164.977 101.34 164.744H100.184C100.209 165.096 100.324 165.404 100.529 165.666C100.734 165.928 100.999 166.131 101.324 166.275C101.648 166.419 101.997 166.491 102.372 166.491ZM101.76 163.016C101.943 163.189 102.183 163.276 102.48 163.276C102.649 163.276 102.814 163.238 102.973 163.161C103.132 163.085 103.264 162.989 103.366 162.872C103.469 162.756 103.52 162.635 103.52 162.51C103.523 162.241 103.481 162.01 103.393 161.818C103.306 161.625 103.184 161.477 103.027 161.375C102.87 161.272 102.688 161.221 102.48 161.221C102.289 161.221 102.118 161.265 101.968 161.354C101.819 161.443 101.701 161.567 101.615 161.728C101.529 161.889 101.486 162.075 101.486 162.286C101.486 162.599 101.577 162.842 101.76 163.016ZM110.104 166.4V165.377H107.038V165.322C107.038 165.139 107.093 164.983 107.204 164.852C107.315 164.722 107.462 164.605 107.645 164.501C107.828 164.397 108.029 164.295 108.246 164.195C108.464 164.095 108.682 163.987 108.901 163.871C109.121 163.754 109.322 163.618 109.505 163.463C109.688 163.308 109.835 163.12 109.946 162.901C110.057 162.682 110.112 162.422 110.112 162.119C110.112 161.756 110.023 161.438 109.846 161.167C109.668 160.895 109.417 160.683 109.091 160.53C108.765 160.378 108.377 160.301 107.928 160.301C107.404 160.301 106.968 160.393 106.622 160.576C106.275 160.759 106.015 161.006 105.842 161.318C105.668 161.63 105.579 161.978 105.573 162.361H106.734C106.784 162.008 106.914 161.745 107.125 161.57C107.336 161.395 107.592 161.308 107.895 161.308C108.186 161.308 108.415 161.384 108.583 161.537C108.751 161.689 108.835 161.886 108.835 162.128C108.835 162.316 108.778 162.48 108.664 162.618C108.551 162.757 108.4 162.883 108.213 162.995C108.026 163.107 107.82 163.219 107.595 163.33C107.371 163.441 107.147 163.559 106.923 163.683C106.7 163.808 106.495 163.953 106.308 164.118C106.121 164.283 105.97 164.477 105.856 164.701C105.743 164.924 105.686 165.188 105.686 165.493V166.4H110.104ZM114.824 165.695C114.416 166.226 113.849 166.491 113.122 166.491C112.393 166.491 111.824 166.227 111.415 165.697C111.006 165.167 110.801 164.405 110.801 163.409C110.801 162.743 110.895 162.179 111.084 161.716C111.272 161.253 111.54 160.901 111.887 160.661C112.233 160.421 112.645 160.301 113.122 160.301C113.838 160.301 114.402 160.568 114.815 161.102C115.229 161.636 115.435 162.404 115.435 163.405C115.435 164.4 115.231 165.164 114.824 165.695ZM113.122 165.497C112.762 165.497 112.496 165.336 112.324 165.015C112.152 164.693 112.066 164.158 112.066 163.409C112.066 162.646 112.152 162.097 112.326 161.762C112.499 161.426 112.763 161.258 113.118 161.258C113.473 161.258 113.735 161.425 113.904 161.757C114.074 162.09 114.158 162.641 114.158 163.409C114.158 164.16 114.075 164.696 113.909 165.017C113.742 165.337 113.48 165.497 113.122 165.497ZM119.997 165.069V166.4H118.828L118.832 165.069H116.062V164.07L118.803 160.385H119.997V164.05H120.925V165.069H119.997ZM118.832 164.05H117.185L118.832 161.845V164.05ZM54.1508 171.909V172.786H53.2564V171.909H54.1508ZM54.1342 177.92V173.618H53.2772V177.92H54.1342ZM57.8342 177.847C57.5804 177.951 57.2788 178.003 56.9294 178.003C56.6299 178.003 56.3491 177.956 56.087 177.862C55.8249 177.767 55.6058 177.619 55.4297 177.417C55.2536 177.214 55.1434 176.955 55.099 176.639H55.8936C55.9296 176.802 55.9983 176.937 56.0995 177.044C56.2007 177.151 56.3227 177.23 56.4656 177.281C56.6084 177.333 56.7616 177.358 56.9252 177.358C57.197 177.358 57.4168 177.309 57.5846 177.211C57.7524 177.112 57.8363 176.96 57.8363 176.755C57.8363 176.608 57.7912 176.49 57.7011 176.402C57.611 176.313 57.4688 176.248 57.2747 176.206L56.4177 176.002C56.0627 175.919 55.7785 175.787 55.5649 175.605C55.3514 175.423 55.2432 175.169 55.2404 174.842C55.2404 174.589 55.3035 174.365 55.4297 174.168C55.5559 173.971 55.7438 173.816 55.9934 173.704C56.243 173.591 56.5536 173.535 56.9252 173.535C57.4106 173.535 57.8002 173.643 58.0942 173.86C58.3882 174.076 58.5407 174.389 58.5518 174.8H57.7822C57.7545 174.603 57.665 174.448 57.5139 174.336C57.3627 174.224 57.1638 174.168 56.9169 174.168C56.6618 174.168 56.4524 174.218 56.2888 174.319C56.1251 174.421 56.0433 174.575 56.0433 174.783C56.0433 174.925 56.103 175.036 56.2222 175.118C56.3415 175.2 56.5203 175.267 56.7588 175.32L57.5742 175.524C57.785 175.579 57.9583 175.652 58.0942 175.742C58.2301 175.832 58.3369 175.931 58.4145 176.04C58.4922 176.148 58.547 176.26 58.5788 176.377C58.6107 176.493 58.6267 176.603 58.6267 176.705C58.6267 176.977 58.558 177.209 58.4208 177.402C58.2835 177.595 58.088 177.743 57.8342 177.847ZM63.0086 178.003C63.3248 178.003 63.6084 177.942 63.8594 177.82C64.1104 177.698 64.3142 177.527 64.4709 177.308C64.6276 177.089 64.7212 176.836 64.7517 176.547H63.9946C63.9724 176.677 63.9211 176.804 63.8406 176.926C63.7602 177.048 63.6514 177.148 63.5141 177.225C63.3768 177.303 63.2153 177.342 63.0294 177.342C62.644 177.342 62.3507 177.2 62.1496 176.917C61.9485 176.634 61.848 176.255 61.848 175.778C61.848 175.256 61.9562 174.869 62.1725 174.617C62.3888 174.365 62.6689 174.238 63.0128 174.238C63.2014 174.238 63.3643 174.275 63.5016 174.349C63.6389 174.422 63.7484 174.52 63.8302 174.642C63.9121 174.764 63.9654 174.896 63.9904 175.037H64.76C64.7267 174.738 64.6324 174.475 64.4771 174.251C64.3218 174.026 64.1187 173.851 63.8677 173.725C63.6167 173.598 63.3304 173.535 63.0086 173.535C62.5899 173.535 62.23 173.63 61.9291 173.818C61.6282 174.007 61.3987 174.27 61.2406 174.609C61.0826 174.947 61.0035 175.339 61.0035 175.786C61.0035 176.26 61.0888 176.663 61.2594 176.994C61.4299 177.326 61.6664 177.577 61.9686 177.747C62.2709 177.918 62.6176 178.003 63.0086 178.003ZM68.5188 177.722C68.2234 177.91 67.8608 178.003 67.4309 178.003C67.0288 178.003 66.6773 177.916 66.3764 177.743C66.0755 177.57 65.8425 177.318 65.6775 176.988C65.5125 176.658 65.43 176.259 65.43 175.79C65.43 175.338 65.5083 174.943 65.665 174.604C65.8217 174.266 66.0498 174.003 66.3493 173.816C66.6489 173.629 67.0108 173.535 67.4351 173.535C67.84 173.535 68.1908 173.623 68.4876 173.799C68.7843 173.976 69.0145 174.232 69.1781 174.569C69.3418 174.906 69.4236 175.313 69.4236 175.79C69.4236 176.225 69.3466 176.61 69.1927 176.942C69.0388 177.275 68.8141 177.535 68.5188 177.722ZM67.4351 177.317C67.1661 177.317 66.9484 177.246 66.782 177.105C66.6156 176.963 66.4949 176.775 66.4201 176.539C66.3452 176.303 66.3077 176.045 66.3077 175.765C66.3077 175.449 66.35 175.175 66.4346 174.943C66.5192 174.712 66.6447 174.533 66.8111 174.407C66.9775 174.281 67.1855 174.218 67.4351 174.218C67.7013 174.218 67.9163 174.287 68.0799 174.426C68.2435 174.564 68.3621 174.751 68.4356 174.985C68.5091 175.219 68.5458 175.479 68.5458 175.765C68.5458 176.073 68.5042 176.344 68.421 176.578C68.3378 176.813 68.2137 176.994 68.0487 177.123C67.8837 177.252 67.6792 177.317 67.4351 177.317ZM71.2004 175.079V177.92H70.3101V173.618H71.1754V174.238C71.2975 174.05 71.4639 173.885 71.6746 173.745C71.8854 173.605 72.1572 173.535 72.49 173.535C72.6453 173.535 72.8027 173.562 72.9621 173.614C73.1216 173.667 73.2686 173.745 73.4031 173.849C73.5376 173.953 73.6437 174.082 73.7213 174.234C73.8572 174.029 74.0389 173.861 74.2663 173.731C74.4937 173.6 74.7489 173.535 75.0317 173.535C75.1843 173.535 75.3424 173.56 75.506 173.608C75.6696 173.657 75.8215 173.738 75.9615 173.854C76.1016 173.969 76.2153 174.127 76.3026 174.33C76.39 174.532 76.4337 174.789 76.4337 175.099V177.92H75.5393V175.195C75.5393 174.959 75.4997 174.775 75.4207 174.642C75.3417 174.509 75.2391 174.415 75.1129 174.361C74.9867 174.307 74.8529 174.28 74.7114 174.28C74.5839 174.28 74.4507 174.305 74.3121 174.355C74.1734 174.405 74.0555 174.488 73.9585 174.604C73.8614 174.721 73.8129 174.879 73.8129 175.079V177.92H72.9226V175.004C72.9226 174.846 72.8803 174.713 72.7957 174.604C72.7112 174.496 72.6058 174.415 72.4796 174.361C72.3534 174.307 72.2279 174.28 72.1031 174.28C71.9644 174.28 71.8258 174.308 71.6871 174.363C71.5484 174.419 71.4327 174.505 71.3397 174.623C71.2468 174.741 71.2004 174.893 71.2004 175.079ZM78.4052 179.259V177.179C78.4551 177.274 78.5182 177.369 78.5945 177.464C78.6708 177.56 78.763 177.649 78.8711 177.731C78.9793 177.812 79.1041 177.878 79.2455 177.928C79.387 177.978 79.5464 178.003 79.7239 178.003C80.0928 178.003 80.4117 177.916 80.6807 177.743C80.9497 177.57 81.157 177.314 81.3026 176.976C81.4482 176.637 81.521 176.218 81.521 175.719C81.521 175.223 81.4482 174.813 81.3026 174.49C81.157 174.167 80.9546 173.927 80.6953 173.77C80.436 173.614 80.1372 173.535 79.7988 173.535C79.6185 173.535 79.4542 173.559 79.3058 173.606C79.1575 173.653 79.0257 173.716 78.9106 173.795C78.7956 173.874 78.6964 173.96 78.6132 174.053C78.53 174.146 78.4621 174.24 78.4094 174.334L78.401 173.618H77.5108V179.259H78.4052ZM78.9086 177.109C79.0777 177.253 79.2871 177.325 79.5367 177.325C79.8668 177.325 80.1378 177.197 80.35 176.94C80.5622 176.684 80.6682 176.282 80.6682 175.736C80.6682 175.267 80.5705 174.896 80.375 174.623C80.1794 174.35 79.9 174.213 79.5367 174.213C79.1623 174.213 78.8794 174.355 78.6881 174.64C78.4967 174.924 78.401 175.289 78.401 175.736C78.401 176.027 78.4433 176.293 78.5279 176.533C78.6125 176.772 78.7394 176.965 78.9086 177.109ZM83.5742 177.978C83.638 177.978 83.7067 177.971 83.7801 177.957C83.8536 177.943 83.9251 177.925 83.9944 177.903V177.338L83.7697 177.329C83.6061 177.315 83.4848 177.256 83.4057 177.15C83.3267 177.045 83.2872 176.892 83.2872 176.693V171.738H82.4094V176.784C82.4094 176.937 82.4226 177.084 82.4489 177.227C82.4753 177.37 82.5287 177.498 82.6091 177.61C82.6895 177.722 82.8067 177.812 82.9606 177.878C83.1145 177.945 83.3191 177.978 83.5742 177.978ZM87.4794 177.847C87.2187 177.951 86.9455 178.003 86.6599 178.003C86.2522 178.003 85.893 177.915 85.5824 177.739C85.2718 177.563 85.0298 177.311 84.8565 176.984C84.6832 176.657 84.5965 176.267 84.5965 175.815C84.5965 175.368 84.6755 174.974 84.8336 174.631C84.9917 174.289 85.2205 174.021 85.52 173.826C85.8195 173.632 86.1801 173.535 86.6016 173.535C87.0176 173.535 87.3678 173.624 87.652 173.802C87.9363 173.979 88.1519 174.228 88.2989 174.548C88.4459 174.869 88.5194 175.246 88.5194 175.682V175.977H85.4909C85.4909 176.235 85.5332 176.466 85.6178 176.67C85.7024 176.874 85.8306 177.035 86.0026 177.152C86.1745 177.27 86.3881 177.329 86.6432 177.329C86.8984 177.329 87.1195 177.271 87.3067 177.154C87.4939 177.038 87.6167 176.865 87.6749 176.634H88.4986C88.4487 176.928 88.3315 177.178 88.1471 177.383C87.9626 177.589 87.7401 177.743 87.4794 177.847ZM87.6707 175.399H85.4909C85.4909 175.202 85.5318 175.011 85.6136 174.825C85.6954 174.639 85.8182 174.487 85.9818 174.367C86.1454 174.248 86.3506 174.188 86.5975 174.188C86.8387 174.188 87.0391 174.242 87.1986 174.349C87.3581 174.455 87.4766 174.601 87.5543 174.785C87.6319 174.97 87.6707 175.174 87.6707 175.399ZM91.3981 177.924C91.2885 177.941 91.1478 177.949 90.9758 177.949C90.6569 177.949 90.4094 177.906 90.2333 177.82C90.0572 177.734 89.9351 177.61 89.8672 177.448C89.7992 177.286 89.7653 177.089 89.7653 176.859V174.259H89.0664V173.618H89.7902L90.0107 172.354H90.6555V173.614H91.6206V174.259H90.6555L90.6597 176.826C90.6597 176.967 90.6742 177.071 90.7033 177.136C90.7325 177.201 90.7824 177.243 90.8531 177.261C90.9238 177.279 91.0202 177.288 91.1422 177.288H91.6456V177.866C91.5901 177.888 91.5076 177.907 91.3981 177.924ZM94.3256 178.003C94.6113 178.003 94.8845 177.951 95.1451 177.847C95.4058 177.743 95.6284 177.589 95.8128 177.383C95.9973 177.178 96.1144 176.928 96.1643 176.634H95.3407C95.2824 176.865 95.1597 177.038 94.9725 177.154C94.7853 177.271 94.5641 177.329 94.309 177.329C94.0538 177.329 93.8403 177.27 93.6683 177.152C93.4964 177.035 93.3681 176.874 93.2835 176.67C93.199 176.466 93.1567 176.235 93.1567 175.977H96.1851V175.682C96.1851 175.246 96.1117 174.869 95.9647 174.548C95.8177 174.228 95.6021 173.979 95.3178 173.802C95.0335 173.624 94.6834 173.535 94.2674 173.535C93.8458 173.535 93.4853 173.632 93.1858 173.826C92.8863 174.021 92.6575 174.289 92.4994 174.631C92.3413 174.974 92.2623 175.368 92.2623 175.815C92.2623 176.267 92.3489 176.657 92.5223 176.984C92.6956 177.311 92.9376 177.563 93.2482 177.739C93.5588 177.915 93.9179 178.003 94.3256 178.003ZM93.1567 175.399H95.3365C95.3365 175.174 95.2977 174.97 95.22 174.785C95.1424 174.601 95.0238 174.455 94.8643 174.349C94.7049 174.242 94.5045 174.188 94.2632 174.188C94.0164 174.188 93.8112 174.248 93.6475 174.367C93.4839 174.487 93.3612 174.639 93.2794 174.825C93.1976 175.011 93.1567 175.202 93.1567 175.399ZM98.6832 178.003C98.9217 178.003 99.1255 177.971 99.2947 177.907C99.4639 177.844 99.6032 177.762 99.7128 177.662C99.8223 177.562 99.909 177.457 99.9728 177.346C100.037 177.235 100.084 177.132 100.114 177.038L100.214 177.92H100.88V171.738H99.9853V174.272C99.9437 174.197 99.8847 174.116 99.8085 174.03C99.7322 173.944 99.6365 173.864 99.5214 173.789C99.4063 173.714 99.2732 173.653 99.1221 173.606C98.9709 173.559 98.7983 173.535 98.6041 173.535C98.2214 173.535 97.9004 173.627 97.6411 173.81C97.3818 173.993 97.187 174.25 97.0566 174.582C96.9263 174.913 96.8611 175.302 96.8611 175.748C96.8611 176.478 97.0233 177.036 97.3478 177.423C97.6723 177.81 98.1174 178.003 98.6832 178.003ZM98.0322 176.917C98.2221 177.195 98.496 177.333 98.8537 177.333C99.2531 177.333 99.5415 177.208 99.719 176.957C99.8965 176.706 99.9853 176.293 99.9853 175.719C99.9825 175.395 99.9423 175.12 99.8646 174.896C99.787 174.671 99.667 174.501 99.5048 174.386C99.3425 174.271 99.1297 174.213 98.8662 174.213C98.5362 174.213 98.2672 174.332 98.0592 174.569C97.8512 174.806 97.7472 175.19 97.7472 175.719C97.7472 176.241 97.8422 176.64 98.0322 176.917ZM105.043 178.003C105.351 178.003 105.627 177.94 105.873 177.814C106.118 177.688 106.321 177.46 106.482 177.13L106.553 177.92H107.306V174.912C107.306 174.618 107.244 174.369 107.121 174.163C106.997 173.958 106.81 173.802 106.557 173.695C106.305 173.589 105.983 173.535 105.592 173.535C105.24 173.535 104.933 173.585 104.673 173.685C104.412 173.785 104.208 173.933 104.059 174.128C103.911 174.324 103.828 174.564 103.812 174.85H104.585C104.641 174.609 104.758 174.435 104.937 174.33C105.116 174.224 105.32 174.172 105.55 174.172C105.856 174.169 106.082 174.238 106.229 174.38C106.376 174.521 106.449 174.715 106.449 174.962V175.274L105.742 175.295C105.001 175.309 104.462 175.434 104.124 175.669C103.785 175.905 103.616 176.261 103.616 176.738C103.616 177.005 103.677 177.232 103.799 177.421C103.921 177.609 104.09 177.754 104.305 177.853C104.52 177.953 104.766 178.003 105.043 178.003ZM104.714 177.19C104.875 177.319 105.078 177.383 105.322 177.383C105.458 177.383 105.592 177.359 105.725 177.31C105.858 177.262 105.979 177.195 106.087 177.111C106.195 177.026 106.282 176.931 106.347 176.826C106.412 176.72 106.446 176.612 106.449 176.501V175.79L105.867 175.802C105.57 175.805 105.318 175.836 105.112 175.894C104.905 175.952 104.747 176.042 104.637 176.164C104.528 176.286 104.473 176.449 104.473 176.651C104.473 176.881 104.553 177.061 104.714 177.19ZM109.381 177.92V175.079C109.381 174.901 109.43 174.753 109.527 174.636C109.624 174.518 109.751 174.43 109.909 174.371C110.067 174.313 110.234 174.284 110.409 174.284C110.669 174.284 110.882 174.359 111.047 174.509C111.212 174.658 111.295 174.887 111.295 175.195V177.92H112.185V175.099C112.185 174.742 112.116 174.45 111.977 174.224C111.838 173.998 111.654 173.831 111.426 173.725C111.197 173.618 110.948 173.564 110.679 173.564C110.452 173.564 110.251 173.596 110.078 173.66C109.904 173.724 109.759 173.807 109.641 173.91C109.523 174.012 109.43 174.122 109.36 174.238V173.618H108.491V177.92H109.381ZM115.443 177.907C115.274 177.971 115.07 178.003 114.832 178.003C114.266 178.003 113.821 177.81 113.497 177.423C113.172 177.036 113.01 176.478 113.01 175.748C113.01 175.302 113.075 174.913 113.205 174.582C113.336 174.25 113.53 173.993 113.79 173.81C114.049 173.627 114.37 173.535 114.753 173.535C114.947 173.535 115.12 173.559 115.271 173.606C115.422 173.653 115.555 173.714 115.67 173.789C115.785 173.864 115.881 173.944 115.957 174.03C116.033 174.116 116.092 174.197 116.134 174.272V171.738H117.028V177.92H116.363L116.263 177.038C116.232 177.132 116.185 177.235 116.121 177.346C116.058 177.457 115.971 177.562 115.861 177.662C115.752 177.762 115.613 177.844 115.443 177.907ZM115.002 177.333C114.645 177.333 114.371 177.195 114.181 176.917C113.991 176.64 113.896 176.241 113.896 175.719C113.896 175.19 114 174.806 114.208 174.569C114.416 174.332 114.685 174.213 115.015 174.213C115.278 174.213 115.491 174.271 115.653 174.386C115.816 174.501 115.936 174.671 116.013 174.896C116.091 175.12 116.131 175.395 116.134 175.719C116.134 176.293 116.045 176.706 115.868 176.957C115.69 177.208 115.402 177.333 115.002 177.333ZM41.8901 188.699V190.779H40.9957V185.138H41.886L41.8943 185.854C41.947 185.76 42.0149 185.666 42.0981 185.573C42.1813 185.48 42.2805 185.394 42.3956 185.315C42.5107 185.236 42.6424 185.173 42.7908 185.126C42.9391 185.079 43.1035 185.055 43.2837 185.055C43.6221 185.055 43.9209 185.134 44.1802 185.29C44.4395 185.447 44.642 185.687 44.7876 186.01C44.9332 186.333 45.006 186.743 45.006 187.239C45.006 187.738 44.9332 188.157 44.7876 188.496C44.642 188.834 44.4347 189.09 44.1656 189.263C43.8966 189.436 43.5777 189.523 43.2088 189.523C43.0314 189.523 42.8719 189.498 42.7304 189.448C42.589 189.398 42.4642 189.332 42.356 189.251C42.2479 189.169 42.1557 189.08 42.0794 188.984C42.0031 188.889 41.94 188.794 41.8901 188.699ZM43.0216 188.845C42.772 188.845 42.5627 188.773 42.3935 188.629C42.2243 188.485 42.0974 188.292 42.0128 188.053C41.9283 187.813 41.886 187.547 41.886 187.256C41.886 186.809 41.9816 186.444 42.173 186.16C42.3644 185.875 42.6472 185.733 43.0216 185.733C43.385 185.733 43.6644 185.87 43.8599 186.143C44.0554 186.416 44.1532 186.787 44.1532 187.256C44.1532 187.802 44.0471 188.204 43.8349 188.46C43.6228 188.717 43.3517 188.845 43.0216 188.845ZM46.7846 186.852V189.44H45.8943V185.138H46.7471V186.02C46.8193 185.81 46.9198 185.633 47.0487 185.49C47.1777 185.347 47.3282 185.239 47.5001 185.166C47.6721 185.092 47.8537 185.055 48.0451 185.055C48.1033 185.055 48.1588 185.059 48.2115 185.066C48.2642 185.073 48.3058 185.084 48.3363 185.101V185.958C48.3002 185.941 48.2538 185.93 48.1969 185.925C48.1401 185.919 48.0908 185.915 48.0492 185.912C47.8606 185.898 47.6887 185.908 47.5334 185.941C47.3781 185.975 47.2443 186.03 47.1319 186.108C47.0196 186.185 46.9337 186.287 46.874 186.411C46.8144 186.536 46.7846 186.683 46.7846 186.852ZM50.7706 189.523C51.2005 189.523 51.5631 189.43 51.8584 189.242C52.1538 189.055 52.3784 188.795 52.5324 188.462C52.6863 188.13 52.7632 187.745 52.7632 187.31C52.7632 186.833 52.6814 186.426 52.5178 186.089C52.3542 185.752 52.124 185.496 51.8272 185.319C51.5305 185.143 51.1797 185.055 50.7748 185.055C50.3504 185.055 49.9885 185.149 49.689 185.336C49.3895 185.523 49.1614 185.786 49.0047 186.124C48.848 186.463 48.7696 186.858 48.7696 187.31C48.7696 187.779 48.8522 188.178 49.0172 188.508C49.1822 188.838 49.4151 189.09 49.716 189.263C50.017 189.436 50.3685 189.523 50.7706 189.523ZM50.1216 188.625C50.288 188.766 50.5058 188.837 50.7748 188.837C51.0188 188.837 51.2234 188.772 51.3884 188.643C51.5534 188.514 51.6775 188.333 51.7607 188.098C51.8439 187.864 51.8855 187.593 51.8855 187.285C51.8855 186.999 51.8487 186.739 51.7752 186.505C51.7018 186.271 51.5832 186.084 51.4196 185.946C51.2559 185.807 51.041 185.738 50.7748 185.738C50.5252 185.738 50.3172 185.801 50.1508 185.927C49.9844 186.053 49.8589 186.232 49.7743 186.463C49.6897 186.695 49.6474 186.969 49.6474 187.285C49.6474 187.565 49.6848 187.823 49.7597 188.059C49.8346 188.295 49.9552 188.483 50.1216 188.625ZM55.4012 189.523C55.7173 189.523 56.0009 189.462 56.2519 189.34C56.5029 189.218 56.7067 189.047 56.8634 188.828C57.0201 188.609 57.1137 188.356 57.1442 188.067H56.3871C56.3649 188.197 56.3136 188.324 56.2332 188.446C56.1527 188.568 56.0439 188.668 55.9066 188.745C55.7693 188.823 55.6078 188.862 55.422 188.862C55.0365 188.862 54.7432 188.72 54.5421 188.437C54.3411 188.154 54.2405 187.775 54.2405 187.298C54.2405 186.776 54.3487 186.389 54.565 186.137C54.7813 185.885 55.0614 185.758 55.4053 185.758C55.5939 185.758 55.7568 185.795 55.8941 185.869C56.0314 185.942 56.141 186.04 56.2228 186.162C56.3046 186.284 56.358 186.416 56.3829 186.557H57.1525C57.1192 186.258 57.025 185.995 56.8696 185.771C56.7143 185.546 56.5112 185.371 56.2602 185.245C56.0092 185.118 55.7229 185.055 55.4012 185.055C54.9824 185.055 54.6226 185.15 54.3216 185.338C54.0207 185.527 53.7912 185.79 53.6332 186.129C53.4751 186.467 53.396 186.859 53.396 187.306C53.396 187.78 53.4813 188.183 53.6519 188.514C53.8224 188.846 54.0589 189.097 54.3612 189.267C54.6635 189.438 55.0101 189.523 55.4012 189.523ZM60.7387 189.367C60.478 189.471 60.2048 189.523 59.9191 189.523C59.5115 189.523 59.1523 189.435 58.8417 189.259C58.5311 189.083 58.2891 188.831 58.1158 188.504C57.9425 188.177 57.8558 187.787 57.8558 187.335C57.8558 186.888 57.9348 186.494 58.0929 186.151C58.251 185.809 58.4798 185.541 58.7793 185.346C59.0788 185.152 59.4394 185.055 59.8609 185.055C60.2769 185.055 60.627 185.144 60.9113 185.322C61.1956 185.499 61.4112 185.748 61.5582 186.068C61.7052 186.389 61.7787 186.766 61.7787 187.202V187.497H58.7502C58.7502 187.755 58.7925 187.986 58.8771 188.19C58.9617 188.394 59.0899 188.555 59.2619 188.672C59.4338 188.79 59.6474 188.849 59.9025 188.849C60.1577 188.849 60.3788 188.791 60.566 188.674C60.7532 188.558 60.8759 188.385 60.9342 188.154H61.7579C61.7079 188.448 61.5908 188.698 61.4063 188.903C61.2219 189.109 60.9994 189.263 60.7387 189.367ZM60.93 186.919H58.7502C58.7502 186.722 58.7911 186.531 58.8729 186.345C58.9547 186.159 59.0774 186.007 59.2411 185.887C59.4047 185.768 59.6099 185.708 59.8567 185.708C60.098 185.708 60.2984 185.762 60.4579 185.869C60.6173 185.975 60.7359 186.121 60.8135 186.305C60.8912 186.49 60.93 186.694 60.93 186.919ZM65.1649 189.367C64.9111 189.471 64.6095 189.523 64.2601 189.523C63.9605 189.523 63.6797 189.476 63.4177 189.382C63.1556 189.287 62.9365 189.139 62.7604 188.937C62.5843 188.734 62.474 188.475 62.4297 188.159H63.2242C63.2603 188.322 63.3289 188.457 63.4301 188.564C63.5314 188.671 63.6534 188.75 63.7962 188.801C63.9391 188.853 64.0923 188.878 64.2559 188.878C64.5277 188.878 64.7475 188.829 64.9153 188.731C65.0831 188.632 65.1669 188.48 65.1669 188.275C65.1669 188.128 65.1219 188.01 65.0317 187.922C64.9416 187.833 64.7995 187.768 64.6053 187.726L63.7484 187.522C63.3934 187.439 63.1091 187.307 62.8956 187.125C62.682 186.943 62.5739 186.689 62.5711 186.362C62.5711 186.109 62.6342 185.885 62.7604 185.688C62.8866 185.491 63.0745 185.336 63.3241 185.224C63.5737 185.111 63.8843 185.055 64.2559 185.055C64.7412 185.055 65.1309 185.163 65.4249 185.38C65.7188 185.596 65.8714 185.909 65.8825 186.32H65.1129C65.0851 186.123 64.9957 185.968 64.8445 185.856C64.6934 185.744 64.4944 185.688 64.2476 185.688C63.9924 185.688 63.7831 185.738 63.6194 185.839C63.4558 185.941 63.374 186.095 63.374 186.303C63.374 186.445 63.4336 186.556 63.5529 186.638C63.6721 186.72 63.851 186.787 64.0895 186.84L64.9049 187.044C65.1156 187.099 65.289 187.172 65.4249 187.262C65.5608 187.352 65.6675 187.451 65.7452 187.56C65.8228 187.668 65.8776 187.78 65.9095 187.897C65.9414 188.013 65.9573 188.123 65.9573 188.225C65.9573 188.497 65.8887 188.729 65.7514 188.922C65.6141 189.115 65.4186 189.263 65.1649 189.367ZM68.414 189.523C68.7635 189.523 69.0651 189.471 69.3188 189.367C69.5726 189.263 69.7681 189.115 69.9054 188.922C70.0427 188.729 70.1113 188.497 70.1113 188.225C70.1113 188.123 70.0954 188.013 70.0635 187.897C70.0316 187.78 69.9768 187.668 69.8992 187.56C69.8215 187.451 69.7147 187.352 69.5788 187.262C69.443 187.172 69.2696 187.099 69.0588 187.044L68.2435 186.84C68.005 186.787 67.8261 186.72 67.7068 186.638C67.5876 186.556 67.528 186.445 67.528 186.303C67.528 186.095 67.6098 185.941 67.7734 185.839C67.937 185.738 68.1464 185.688 68.4016 185.688C68.6484 185.688 68.8474 185.744 68.9985 185.856C69.1497 185.968 69.2391 186.123 69.2668 186.32H70.0364C70.0254 185.909 69.8728 185.596 69.5788 185.38C69.2849 185.163 68.8952 185.055 68.4099 185.055C68.0383 185.055 67.7276 185.111 67.478 185.224C67.2284 185.336 67.0406 185.491 66.9144 185.688C66.7882 185.885 66.7251 186.109 66.7251 186.362C66.7279 186.689 66.836 186.943 67.0496 187.125C67.2631 187.307 67.5474 187.439 67.9024 187.522L68.7593 187.726C68.9535 187.768 69.0956 187.833 69.1857 187.922C69.2759 188.01 69.3209 188.128 69.3209 188.275C69.3209 188.48 69.237 188.632 69.0692 188.731C68.9015 188.829 68.6817 188.878 68.4099 188.878C68.2463 188.878 68.093 188.853 67.9502 188.801C67.8074 188.75 67.6854 188.671 67.5841 188.564C67.4829 188.457 67.4143 188.322 67.3782 188.159H66.5836C66.628 188.475 66.7383 188.734 66.9144 188.937C67.0905 189.139 67.3096 189.287 67.5716 189.382C67.8337 189.476 68.1145 189.523 68.414 189.523ZM73.7203 189.367C73.4597 189.471 73.1865 189.523 72.9008 189.523C72.4931 189.523 72.134 189.435 71.8234 189.259C71.5128 189.083 71.2708 188.831 71.0975 188.504C70.9241 188.177 70.8375 187.787 70.8375 187.335C70.8375 186.888 70.9165 186.494 71.0746 186.151C71.2327 185.809 71.4615 185.541 71.761 185.346C72.0605 185.152 72.421 185.055 72.8426 185.055C73.2586 185.055 73.6087 185.144 73.893 185.322C74.1773 185.499 74.3929 185.748 74.5399 186.068C74.6869 186.389 74.7603 186.766 74.7603 187.202V187.497H71.7319C71.7319 187.755 71.7742 187.986 71.8587 188.19C71.9433 188.394 72.0716 188.555 72.2435 188.672C72.4155 188.79 72.629 188.849 72.8842 188.849C73.1393 188.849 73.3605 188.791 73.5477 188.674C73.7349 188.558 73.8576 188.385 73.9159 188.154H74.7395C74.6896 188.448 74.5725 188.698 74.388 188.903C74.2036 189.109 73.981 189.263 73.7203 189.367ZM73.9117 186.919H71.7319C71.7319 186.722 71.7728 186.531 71.8546 186.345C71.9364 186.159 72.0591 186.007 72.2227 185.887C72.3864 185.768 72.5916 185.708 72.8384 185.708C73.0797 185.708 73.2801 185.762 73.4395 185.869C73.599 185.975 73.7176 186.121 73.7952 186.305C73.8729 186.49 73.9117 186.694 73.9117 186.919ZM77.8699 189.427C77.7007 189.491 77.4969 189.523 77.2584 189.523C76.6926 189.523 76.2475 189.33 75.923 188.943C75.5985 188.556 75.4363 187.998 75.4363 187.268C75.4363 186.822 75.5015 186.433 75.6318 186.102C75.7622 185.77 75.957 185.513 76.2163 185.33C76.4756 185.147 76.7966 185.055 77.1793 185.055C77.3735 185.055 77.5461 185.079 77.6973 185.126C77.8484 185.173 77.9815 185.234 78.0966 185.309C78.2117 185.384 78.3074 185.464 78.3837 185.55C78.4599 185.636 78.5189 185.717 78.5605 185.792V183.258H79.4549V189.44H78.7893L78.6894 188.558C78.6589 188.652 78.6118 188.755 78.548 188.866C78.4842 188.977 78.3975 189.082 78.288 189.182C78.1784 189.282 78.0391 189.364 77.8699 189.427ZM77.4289 188.853C77.0712 188.853 76.7973 188.715 76.6073 188.437C76.4174 188.16 76.3224 187.761 76.3224 187.239C76.3224 186.71 76.4264 186.326 76.6344 186.089C76.8424 185.852 77.1114 185.733 77.4414 185.733C77.7049 185.733 77.9177 185.791 78.08 185.906C78.2422 186.021 78.3622 186.191 78.4398 186.416C78.5175 186.64 78.5577 186.915 78.5605 187.239C78.5605 187.813 78.4717 188.226 78.2942 188.477C78.1167 188.728 77.8283 188.853 77.4289 188.853ZM84.8932 189.367C84.6395 189.471 84.3378 189.523 83.9884 189.523C83.6889 189.523 83.4081 189.476 83.146 189.382C82.8839 189.287 82.6648 189.139 82.4887 188.937C82.3126 188.734 82.2024 188.475 82.158 188.159H82.9526C82.9886 188.322 83.0573 188.457 83.1585 188.564C83.2597 188.671 83.3817 188.75 83.5246 188.801C83.6674 188.853 83.8206 188.878 83.9842 188.878C84.256 188.878 84.4758 188.829 84.6436 188.731C84.8114 188.632 84.8953 188.48 84.8953 188.275C84.8953 188.128 84.8502 188.01 84.7601 187.922C84.67 187.833 84.5278 187.768 84.3337 187.726L83.4767 187.522C83.1217 187.439 82.8375 187.307 82.6239 187.125C82.4104 186.943 82.3022 186.689 82.2994 186.362C82.2994 186.109 82.3625 185.885 82.4887 185.688C82.6149 185.491 82.8028 185.336 83.0524 185.224C83.302 185.111 83.6126 185.055 83.9842 185.055C84.4696 185.055 84.8592 185.163 85.1532 185.38C85.4472 185.596 85.5997 185.909 85.6108 186.32H84.8412C84.8135 186.123 84.724 185.968 84.5729 185.856C84.4217 185.744 84.2228 185.688 83.9759 185.688C83.7208 185.688 83.5114 185.738 83.3478 185.839C83.1841 185.941 83.1023 186.095 83.1023 186.303C83.1023 186.445 83.162 186.556 83.2812 186.638C83.4005 186.72 83.5793 186.787 83.8178 186.84L84.6332 187.044C84.844 187.099 85.0173 187.172 85.1532 187.262C85.2891 187.352 85.3959 187.451 85.4735 187.56C85.5512 187.668 85.606 187.78 85.6378 187.897C85.6697 188.013 85.6857 188.123 85.6857 188.225C85.6857 188.497 85.6171 188.729 85.4798 188.922C85.3425 189.115 85.147 189.263 84.8932 189.367ZM88.2131 189.523C88.41 189.526 88.5965 189.497 88.7726 189.438C88.9487 189.378 89.1013 189.281 89.2302 189.147C89.3592 189.012 89.4486 188.833 89.4985 188.608L89.5984 189.44H90.2889V185.138H89.4029V187.938C89.4029 188.235 89.3141 188.46 89.1366 188.614C88.9591 188.768 88.7234 188.845 88.4294 188.845C88.1049 188.845 87.8623 188.765 87.7014 188.604C87.5406 188.443 87.4601 188.234 87.4601 187.976V185.138H86.5657V188.071C86.5657 188.31 86.6108 188.519 86.7009 188.699C86.7911 188.88 86.9131 189.031 87.067 189.153C87.2209 189.275 87.3964 189.366 87.5933 189.427C87.7902 189.488 87.9968 189.52 88.2131 189.523ZM93.9692 189.34C93.7182 189.462 93.4347 189.523 93.1185 189.523C92.7274 189.523 92.3808 189.438 92.0785 189.267C91.7762 189.097 91.5398 188.846 91.3692 188.514C91.1987 188.183 91.1134 187.78 91.1134 187.306C91.1134 186.859 91.1924 186.467 91.3505 186.129C91.5086 185.79 91.7381 185.527 92.039 185.338C92.3399 185.15 92.6997 185.055 93.1185 185.055C93.4402 185.055 93.7265 185.118 93.9775 185.245C94.2285 185.371 94.4317 185.546 94.587 185.771C94.7423 185.995 94.8366 186.258 94.8699 186.557H94.1003C94.0753 186.416 94.0219 186.284 93.9401 186.162C93.8583 186.04 93.7487 185.942 93.6115 185.869C93.4742 185.795 93.3112 185.758 93.1227 185.758C92.7788 185.758 92.4986 185.885 92.2823 186.137C92.066 186.389 91.9578 186.776 91.9578 187.298C91.9578 187.775 92.0584 188.154 92.2594 188.437C92.4605 188.72 92.7538 188.862 93.1393 188.862C93.3251 188.862 93.4866 188.823 93.6239 188.745C93.7612 188.668 93.8701 188.568 93.9505 188.446C94.0309 188.324 94.0822 188.197 94.1044 188.067H94.8615C94.831 188.356 94.7374 188.609 94.5807 188.828C94.424 189.047 94.2202 189.218 93.9692 189.34ZM97.5449 189.523C97.8611 189.523 98.1447 189.462 98.3957 189.34C98.6467 189.218 98.8505 189.047 99.0072 188.828C99.1639 188.609 99.2575 188.356 99.288 188.067H98.5309C98.5087 188.197 98.4574 188.324 98.3769 188.446C98.2965 188.568 98.1877 188.668 98.0504 188.745C97.9131 188.823 97.7516 188.862 97.5658 188.862C97.1803 188.862 96.887 188.72 96.6859 188.437C96.4848 188.154 96.3843 187.775 96.3843 187.298C96.3843 186.776 96.4925 186.389 96.7088 186.137C96.9251 185.885 97.2052 185.758 97.5491 185.758C97.7377 185.758 97.9006 185.795 98.0379 185.869C98.1752 185.942 98.2847 186.04 98.3666 186.162C98.4484 186.284 98.5018 186.416 98.5267 186.557H99.2963C99.263 186.258 99.1687 185.995 99.0134 185.771C98.8581 185.546 98.655 185.371 98.404 185.245C98.153 185.118 97.8667 185.055 97.5449 185.055C97.1262 185.055 96.7663 185.15 96.4654 185.338C96.1645 185.527 95.935 185.79 95.777 186.129C95.6189 186.467 95.5398 186.859 95.5398 187.306C95.5398 187.78 95.6251 188.183 95.7957 188.514C95.9662 188.846 96.2027 189.097 96.5049 189.267C96.8072 189.438 97.1539 189.523 97.5449 189.523ZM102.882 189.367C102.622 189.471 102.349 189.523 102.063 189.523C101.655 189.523 101.296 189.435 100.985 189.259C100.675 189.083 100.433 188.831 100.26 188.504C100.086 188.177 99.9996 187.787 99.9996 187.335C99.9996 186.888 100.079 186.494 100.237 186.151C100.395 185.809 100.624 185.541 100.923 185.346C101.223 185.152 101.583 185.055 102.005 185.055C102.421 185.055 102.771 185.144 103.055 185.322C103.339 185.499 103.555 185.748 103.702 186.068C103.849 186.389 103.922 186.766 103.922 187.202V187.497H100.894C100.894 187.755 100.936 187.986 101.021 188.19C101.105 188.394 101.234 188.555 101.406 188.672C101.578 188.79 101.791 188.849 102.046 188.849C102.301 188.849 102.523 188.791 102.71 188.674C102.897 188.558 103.02 188.385 103.078 188.154H103.902C103.852 188.448 103.735 188.698 103.55 188.903C103.366 189.109 103.143 189.263 102.882 189.367ZM103.074 186.919H100.894C100.894 186.722 100.935 186.531 101.017 186.345C101.098 186.159 101.221 186.007 101.385 185.887C101.548 185.768 101.754 185.708 102.001 185.708C102.242 185.708 102.442 185.762 102.602 185.869C102.761 185.975 102.88 186.121 102.957 186.305C103.035 186.49 103.074 186.694 103.074 186.919ZM107.309 189.367C107.055 189.471 106.753 189.523 106.404 189.523C106.104 189.523 105.824 189.476 105.561 189.382C105.299 189.287 105.08 189.139 104.904 188.937C104.728 188.734 104.618 188.475 104.573 188.159H105.368C105.404 188.322 105.473 188.457 105.574 188.564C105.675 188.671 105.797 188.75 105.94 188.801C106.083 188.853 106.236 188.878 106.4 188.878C106.671 188.878 106.891 188.829 107.059 188.731C107.227 188.632 107.311 188.48 107.311 188.275C107.311 188.128 107.266 188.01 107.176 187.922C107.085 187.833 106.943 187.768 106.749 187.726L105.892 187.522C105.537 187.439 105.253 187.307 105.039 187.125C104.826 186.943 104.718 186.689 104.715 186.362C104.715 186.109 104.778 185.885 104.904 185.688C105.03 185.491 105.218 185.336 105.468 185.224C105.717 185.111 106.028 185.055 106.4 185.055C106.885 185.055 107.275 185.163 107.569 185.38C107.863 185.596 108.015 185.909 108.026 186.32H107.257C107.229 186.123 107.139 185.968 106.988 185.856C106.837 185.744 106.638 185.688 106.391 185.688C106.136 185.688 105.927 185.738 105.763 185.839C105.6 185.941 105.518 186.095 105.518 186.303C105.518 186.445 105.577 186.556 105.697 186.638C105.816 186.72 105.995 186.787 106.233 186.84L107.049 187.044C107.259 187.099 107.433 187.172 107.569 187.262C107.705 187.352 107.811 187.451 107.889 187.56C107.967 187.668 108.021 187.78 108.053 187.897C108.085 188.013 108.101 188.123 108.101 188.225C108.101 188.497 108.032 188.729 107.895 188.922C107.758 189.115 107.562 189.263 107.309 189.367ZM110.558 189.523C110.907 189.523 111.209 189.471 111.463 189.367C111.716 189.263 111.912 189.115 112.049 188.922C112.186 188.729 112.255 188.497 112.255 188.225C112.255 188.123 112.239 188.013 112.207 187.897C112.175 187.78 112.121 187.668 112.043 187.56C111.965 187.451 111.859 187.352 111.723 187.262C111.587 187.172 111.413 187.099 111.203 187.044L110.387 186.84C110.149 186.787 109.97 186.72 109.851 186.638C109.731 186.556 109.672 186.445 109.672 186.303C109.672 186.095 109.754 185.941 109.917 185.839C110.081 185.738 110.29 185.688 110.545 185.688C110.792 185.688 110.991 185.744 111.142 185.856C111.293 185.968 111.383 186.123 111.411 186.32H112.18C112.169 185.909 112.017 185.596 111.723 185.38C111.429 185.163 111.039 185.055 110.554 185.055C110.182 185.055 109.871 185.111 109.622 185.224C109.372 185.336 109.184 185.491 109.058 185.688C108.932 185.885 108.869 186.109 108.869 186.362C108.872 186.689 108.98 186.943 109.193 187.125C109.407 187.307 109.691 187.439 110.046 187.522L110.903 187.726C111.097 187.768 111.239 187.833 111.33 187.922C111.42 188.01 111.465 188.128 111.465 188.275C111.465 188.48 111.381 188.632 111.213 188.731C111.045 188.829 110.825 188.878 110.554 188.878C110.39 188.878 110.237 188.853 110.094 188.801C109.951 188.75 109.829 188.671 109.728 188.564C109.627 188.457 109.558 188.322 109.522 188.159H108.727C108.772 188.475 108.882 188.734 109.058 188.937C109.234 189.139 109.453 189.287 109.715 189.382C109.978 189.476 110.258 189.523 110.558 189.523ZM114.679 185.779V189.44H113.784V185.779H112.906V185.138H113.784V184.485C113.784 184.141 113.876 183.879 114.059 183.697C114.242 183.515 114.511 183.425 114.866 183.425H115.723L115.727 184.04H115.107C114.935 184.04 114.818 184.085 114.755 184.175C114.693 184.266 114.662 184.404 114.662 184.589V185.138H115.685V185.779H114.679ZM118.085 189.523C118.282 189.526 118.468 189.497 118.644 189.438C118.82 189.378 118.973 189.281 119.102 189.147C119.231 189.012 119.32 188.833 119.37 188.608L119.47 189.44H120.161V185.138H119.275V187.938C119.275 188.235 119.186 188.46 119.008 188.614C118.831 188.768 118.595 188.845 118.301 188.845C117.977 188.845 117.734 188.765 117.573 188.604C117.412 188.443 117.332 188.234 117.332 187.976V185.138H116.437V188.071C116.437 188.31 116.482 188.519 116.573 188.699C116.663 188.88 116.785 189.031 116.939 189.153C117.093 189.275 117.268 189.366 117.465 189.427C117.662 189.488 117.868 189.52 118.085 189.523ZM122.655 189.477C122.582 189.491 122.513 189.498 122.449 189.498C122.194 189.498 121.99 189.465 121.836 189.398C121.682 189.332 121.565 189.242 121.484 189.13C121.404 189.018 121.35 188.89 121.324 188.747C121.298 188.604 121.285 188.457 121.285 188.304V183.258H122.162V188.213C122.162 188.412 122.202 188.565 122.281 188.67C122.36 188.776 122.481 188.835 122.645 188.849L122.869 188.858V189.423C122.8 189.445 122.729 189.463 122.655 189.477ZM124.799 189.498C124.862 189.498 124.931 189.491 125.005 189.477C125.078 189.463 125.149 189.445 125.219 189.423V188.858L124.994 188.849C124.831 188.835 124.709 188.776 124.63 188.67C124.551 188.565 124.512 188.412 124.512 188.213V183.258H123.634V188.304C123.634 188.457 123.647 188.604 123.673 188.747C123.7 188.89 123.753 189.018 123.834 189.13C123.914 189.242 124.031 189.332 124.185 189.398C124.339 189.465 124.544 189.498 124.799 189.498ZM126.99 190.717C126.815 190.781 126.625 190.813 126.42 190.813C126.157 190.813 125.974 190.793 125.873 190.754L125.721 190.696V190.122L126.158 190.13C126.324 190.139 126.461 190.129 126.568 190.101C126.674 190.074 126.759 190.035 126.821 189.987C126.884 189.938 126.932 189.886 126.965 189.831C126.998 189.775 127.023 189.724 127.04 189.677L127.173 189.315L125.496 185.138H126.387L127.593 188.317L128.791 185.138H129.665L127.872 189.681C127.75 189.981 127.616 190.212 127.47 190.376C127.325 190.54 127.165 190.653 126.99 190.717Z" fill="#36536B"/>
<g id="Group 31">
<circle id="Oval" opacity="0.25" cx="84.1201" cy="131.84" r="17.92" fill="#BA4270"/>
<path id="Path 2" d="M78.3601 132.925L81.2893 135.855L89.7842 127.36" stroke="#BA4270" stroke-width="3"/>
</g>
</g>
</g>
</g>
<g id="Group 2 Copy">
<rect id="Rectangle_2" x="43.16" y="203.52" width="83.84" height="19.2" rx="9.6" fill="#BA4270"/>
<path id="Dismiss" fill-rule="evenodd" clip-rule="evenodd" d="M75.9852 215.367C75.5898 215.576 75.0882 215.68 74.4804 215.68H72.995V210.59H73.6304C73.7911 210.59 73.9518 210.591 74.1126 210.592C74.2733 210.593 74.4077 210.595 74.5156 210.597C75.1328 210.611 75.6362 210.722 76.0257 210.928C76.4153 211.135 76.701 211.423 76.8828 211.794C77.0647 212.165 77.1556 212.604 77.1556 213.111C77.1556 213.639 77.0594 214.094 76.867 214.478C76.6746 214.862 76.3806 215.158 75.9852 215.367ZM74.0299 214.85H74.5016C74.7925 214.85 75.0571 214.793 75.2953 214.681C75.5335 214.568 75.7242 214.384 75.8673 214.128C76.0105 213.872 76.082 213.531 76.082 213.104C76.082 212.707 76.0187 212.385 75.892 212.137C75.7652 211.89 75.5845 211.709 75.3499 211.594C75.1152 211.479 74.8371 211.421 74.5156 211.421H74.0299V214.85ZM78.9248 211.52V210.594H77.9252V211.52H78.9248ZM78.9143 212.041V215.68H77.9322V212.041H78.9143ZM81.2326 215.751C81.5353 215.751 81.8017 215.706 82.0316 215.617C82.2616 215.528 82.4411 215.398 82.5702 215.228C82.6993 215.058 82.7638 214.852 82.7638 214.61C82.7638 214.528 82.7503 214.436 82.7233 214.334C82.6963 214.232 82.6476 214.13 82.5772 214.029C82.5068 213.928 82.4077 213.835 82.2798 213.75C82.1519 213.664 81.9859 213.596 81.7817 213.547L81.1904 213.413C80.9932 213.373 80.8478 213.326 80.7539 213.271C80.66 213.216 80.6131 213.14 80.6131 213.044C80.6131 212.915 80.6706 212.818 80.7856 212.755C80.9006 212.692 81.0472 212.66 81.2256 212.66C81.3969 212.66 81.5394 212.698 81.6532 212.774C81.7671 212.851 81.8369 212.959 81.8627 213.1H82.7216C82.7169 212.741 82.5802 212.463 82.3115 212.266C82.0428 212.069 81.6843 211.97 81.2361 211.97C80.9052 211.97 80.626 212.021 80.3984 212.122C80.1707 212.222 79.9988 212.36 79.8827 212.533C79.7665 212.707 79.7084 212.903 79.7084 213.121C79.7131 213.422 79.8129 213.653 80.0076 213.816C80.2024 213.98 80.4606 214.095 80.782 214.163L81.4227 214.297C81.587 214.327 81.7049 214.372 81.7764 214.431C81.848 214.489 81.8838 214.568 81.8838 214.666C81.8838 214.796 81.8234 214.891 81.7025 214.953C81.5817 215.016 81.4227 215.047 81.2256 215.047C81.1317 215.047 81.0331 215.031 80.9299 214.999C80.8266 214.967 80.7345 214.914 80.6536 214.839C80.5726 214.764 80.5169 214.662 80.4864 214.533H79.5958C79.6404 214.819 79.7436 215.052 79.9056 215.231C80.0675 215.411 80.2658 215.542 80.5004 215.626C80.7351 215.709 80.9792 215.751 81.2326 215.751ZM84.4556 213.35V215.68H83.4277V212.041H84.4345V212.554C84.5447 212.395 84.6932 212.258 84.8797 212.143C85.0663 212.028 85.3015 211.97 85.5855 211.97C85.7099 211.97 85.8366 211.992 85.9657 212.037C86.0947 212.082 86.2162 212.147 86.33 212.232C86.4438 212.318 86.5359 212.425 86.6063 212.554C86.7236 212.388 86.8779 212.249 87.0692 212.137C87.2604 212.026 87.4734 211.97 87.7081 211.97C87.8442 211.97 87.982 211.992 88.1217 212.037C88.2613 212.082 88.3898 212.154 88.5071 212.255C88.6244 212.356 88.7189 212.491 88.7905 212.658C88.862 212.826 88.8978 213.033 88.8978 213.28V215.68H87.87V213.406C87.87 213.261 87.8412 213.144 87.7837 213.056C87.7262 212.968 87.6535 212.905 87.5655 212.866C87.4775 212.827 87.3842 212.808 87.2857 212.808C87.1941 212.808 87.1014 212.826 87.0076 212.862C86.9137 212.899 86.8339 212.957 86.7682 213.037C86.7025 213.117 86.6697 213.221 86.6697 213.35V215.68H85.6453V213.315C85.6453 213.205 85.616 213.112 85.5573 213.037C85.4987 212.962 85.4253 212.905 85.3373 212.866C85.2493 212.827 85.1596 212.808 85.0681 212.808C84.9742 212.808 84.8803 212.827 84.7865 212.866C84.6926 212.905 84.614 212.965 84.5506 213.046C84.4873 213.126 84.4556 213.228 84.4556 213.35ZM90.7233 211.52V210.594H89.7237V211.52H90.7233ZM90.7128 212.041V215.68H89.7307V212.041H90.7128ZM93.0311 215.751C93.3338 215.751 93.6002 215.706 93.8301 215.617C94.0601 215.528 94.2396 215.398 94.3687 215.228C94.4978 215.058 94.5623 214.852 94.5623 214.61C94.5623 214.528 94.5488 214.436 94.5218 214.334C94.4948 214.232 94.4461 214.13 94.3757 214.029C94.3053 213.928 94.2062 213.835 94.0783 213.75C93.9504 213.664 93.7844 213.596 93.5802 213.547L92.9889 213.413C92.7917 213.373 92.6463 213.326 92.5524 213.271C92.4585 213.216 92.4116 213.14 92.4116 213.044C92.4116 212.915 92.4691 212.818 92.5841 212.755C92.6991 212.692 92.8457 212.66 93.0241 212.66C93.1954 212.66 93.3379 212.698 93.4517 212.774C93.5656 212.851 93.6354 212.959 93.6612 213.1H94.5201C94.5154 212.741 94.3787 212.463 94.11 212.266C93.8413 212.069 93.4828 211.97 93.0346 211.97C92.7037 211.97 92.4245 212.021 92.1969 212.122C91.9692 212.222 91.7973 212.36 91.6812 212.533C91.565 212.707 91.5069 212.903 91.5069 213.121C91.5116 213.422 91.6114 213.653 91.8061 213.816C92.0009 213.98 92.2591 214.095 92.5805 214.163L93.2212 214.297C93.3855 214.327 93.5034 214.372 93.5749 214.431C93.6465 214.489 93.6823 214.568 93.6823 214.666C93.6823 214.796 93.6219 214.891 93.501 214.953C93.3802 215.016 93.2212 215.047 93.0241 215.047C92.9302 215.047 92.8316 215.031 92.7284 214.999C92.6251 214.967 92.533 214.914 92.4521 214.839C92.3711 214.764 92.3154 214.662 92.2849 214.533H91.3943C91.4389 214.819 91.5421 215.052 91.7041 215.231C91.866 215.411 92.0643 215.542 92.2989 215.626C92.5336 215.709 92.7777 215.751 93.0311 215.751ZM97.4192 215.617C97.1892 215.706 96.9229 215.751 96.6202 215.751C96.3667 215.751 96.1227 215.709 95.888 215.626C95.6533 215.542 95.455 215.411 95.2931 215.231C95.1312 215.052 95.0279 214.819 94.9834 214.533H95.8739C95.9044 214.662 95.9602 214.764 96.0411 214.839C96.1221 214.914 96.2142 214.967 96.3174 214.999C96.4207 215.031 96.5192 215.047 96.6131 215.047C96.8102 215.047 96.9692 215.016 97.0901 214.953C97.2109 214.891 97.2714 214.796 97.2714 214.666C97.2714 214.568 97.2356 214.489 97.164 214.431C97.0924 214.372 96.9745 214.327 96.8102 214.297L96.1696 214.163C95.8481 214.095 95.59 213.98 95.3952 213.816C95.2004 213.653 95.1007 213.422 95.096 213.121C95.096 212.903 95.1541 212.707 95.2702 212.533C95.3864 212.36 95.5583 212.222 95.7859 212.122C96.0135 212.021 96.2928 211.97 96.6237 211.97C97.0719 211.97 97.4303 212.069 97.699 212.266C97.9677 212.463 98.1044 212.741 98.1091 213.1H97.2502C97.2244 212.959 97.1546 212.851 97.0408 212.774C96.927 212.698 96.7844 212.66 96.6131 212.66C96.4348 212.66 96.2881 212.692 96.1731 212.755C96.0581 212.818 96.0006 212.915 96.0006 213.044C96.0006 213.14 96.0476 213.216 96.1414 213.271C96.2353 213.326 96.3808 213.373 96.5779 213.413L97.1693 213.547C97.3734 213.596 97.5395 213.664 97.6674 213.75C97.7952 213.835 97.8944 213.928 97.9648 214.029C98.0352 214.13 98.0839 214.232 98.1109 214.334C98.1379 214.436 98.1514 214.528 98.1514 214.61C98.1514 214.852 98.0868 215.058 97.9578 215.228C97.8287 215.398 97.6492 215.528 97.4192 215.617Z" fill="#FBFCFE"/>
</g>
</g>
</g>
<defs>
<filter id="filter0_d_0_3003" x="23.4401" y="85.8799" width="142.64" height="152.24" filterUnits="userSpaceOnUse" color-interpolation-filters="sRGB">
<feFlood flood-opacity="0" result="BackgroundImageFix"/>
<feColorMatrix in="SourceAlpha" type="matrix" values="0 0 0 0 0 0 0 0 0 0 0 0 0 0 0 0 0 0 127 0" result="hardAlpha"/>
<feMorphology radius="10" operator="erode" in="SourceAlpha" result="effect1_dropShadow_0_3003"/>
<feOffset dx="10" dy="10"/>
<feGaussianBlur stdDeviation="12.5"/>
<feColorMatrix type="matrix" values="0 0 0 0 0.212302 0 0 0 0 0.32521 0 0 0 0 0.419299 0 0 0 0.25 0"/>
<feBlend mode="normal" in2="BackgroundImageFix" result="effect1_dropShadow_0_3003"/>
<feBlend mode="normal" in="SourceGraphic" in2="effect1_dropShadow_0_3003" result="shape"/>
</filter>
<linearGradient id="paint0_linear_0_3003" x1="7.32947" y1="0" x2="7.32947" y2="7.88732" gradientUnits="userSpaceOnUse">
<stop stop-color="#454545"/>
<stop offset="0.226279" stop-color="#999999"/>
<stop offset="1" stop-color="white"/>
</linearGradient>
<linearGradient id="paint1_linear_0_3003" x1="167.386" y1="54.8785" x2="161.331" y2="54.8785" gradientUnits="userSpaceOnUse">
<stop stop-color="white" stop-opacity="0.01"/>
<stop offset="0.222178" stop-color="#BABABA"/>
<stop offset="0.54678" stop-color="white" stop-opacity="0.01"/>
<stop offset="1" stop-color="white" stop-opacity="0.01"/>
</linearGradient>
<linearGradient id="paint2_linear_0_3003" x1="2.56344" y1="54.7117" x2="8.62812" y2="54.7117" gradientUnits="userSpaceOnUse">
<stop stop-color="white" stop-opacity="0.01"/>
<stop offset="0.222178" stop-color="#BABABA"/>
<stop offset="0.54678" stop-color="white" stop-opacity="0.01"/>
<stop offset="1" stop-color="white" stop-opacity="0.01"/>
</linearGradient>
</defs>
</svg>
